<?xml version="1.0" standalone="no"?>
<!DOCTYPE svg PUBLIC "-//W3C//DTD SVG 20010904//EN"
 "http://www.w3.org/TR/2001/REC-SVG-20010904/DTD/svg10.dtd">
<svg version="1.0" xmlns="http://www.w3.org/2000/svg"
 width="1134.000000pt" height="1134.000000pt" viewBox="0 0 1134.000000 1134.000000"
 preserveAspectRatio="xMidYMid meet">
<metadata>
Created by potrace 1.14, written by Peter Selinger 2001-2017
</metadata>
<g transform="translate(0.000000,1134.000000) scale(0.100000,-0.100000)"
fill="#000000" stroke="none">
<path d="M4458 10965 c-2 -2 -43 -6 -93 -10 -132 -9 -150 -11 -290 -31 -62 -8
-259 -44 -325 -59 -190 -42 -551 -154 -675 -210 -16 -7 -59 -25 -95 -40 -185
-76 -522 -261 -700 -383 -72 -50 -242 -173 -250 -182 -3 -3 -30 -25 -60 -49
-133 -104 -416 -376 -520 -500 -25 -29 -58 -67 -73 -85 -167 -188 -404 -551
-547 -837 -172 -343 -329 -814 -384 -1149 -3 -19 -7 -44 -10 -55 -4 -20 -15
-90 -21 -135 -3 -22 -9 -73 -21 -185 -23 -219 -22 -646 1 -836 3 -19 7 -56 10
-84 6 -47 20 -145 31 -210 53 -317 163 -689 297 -1000 46 -107 197 -398 266
-511 366 -603 874 -1109 1476 -1470 365 -219 794 -395 1210 -494 66 -16 137
-31 159 -34 21 -4 41 -8 45 -10 4 -3 29 -7 56 -10 27 -4 57 -8 65 -11 25 -7
248 -34 350 -42 194 -16 642 -9 800 12 19 2 58 7 85 10 28 4 57 8 65 10 8 2
38 7 66 10 28 3 59 7 70 9 288 59 401 88 604 155 398 133 737 301 1083 537 59
41 109 74 110 74 1 0 610 -607 1352 -1349 1453 -1451 1385 -1388 1540 -1439
262 -87 557 3 730 221 42 54 91 146 110 208 52 171 37 338 -46 509 l-41 85
-1354 1355 c-1176 1177 -1352 1356 -1340 1370 61 70 248 376 348 570 161 310
314 744 377 1065 6 28 13 61 16 75 13 62 28 160 40 255 4 28 8 61 10 73 2 13
7 63 11 110 3 48 8 101 9 117 5 44 5 463 1 510 -2 22 -7 81 -10 130 -4 50 -9
101 -11 115 -2 14 -7 50 -10 80 -4 30 -9 64 -11 75 -2 11 -6 36 -9 55 -4 30
-13 79 -41 220 -27 132 -95 368 -156 540 -31 87 -112 289 -128 319 -5 9 -32
66 -61 126 -353 740 -987 1417 -1724 1840 -95 55 -368 195 -379 195 -3 0 -29
11 -58 24 -306 138 -701 251 -1073 307 -129 19 -140 20 -205 25 -36 3 -76 7
-90 10 -27 6 -576 14 -582 9z m502 -669 c96 -7 146 -12 210 -22 19 -3 51 -7
70 -9 19 -3 73 -12 120 -21 47 -9 95 -18 108 -20 155 -29 485 -135 668 -215
139 -60 321 -151 381 -191 23 -15 44 -28 48 -28 12 0 215 -136 321 -215 288
-217 545 -478 771 -785 38 -52 83 -117 99 -143 16 -27 41 -67 56 -90 15 -23
33 -53 41 -67 7 -14 24 -43 37 -65 25 -45 94 -177 96 -185 0 -3 17 -39 36 -80
82 -172 159 -395 223 -640 9 -34 57 -277 60 -300 3 -34 17 -131 21 -152 27
-150 24 -673 -7 -882 -5 -39 -12 -84 -14 -101 -3 -16 -6 -39 -8 -50 -5 -22
-16 -85 -24 -125 -2 -14 -19 -86 -38 -160 -97 -387 -265 -770 -483 -1100 -57
-87 -173 -247 -214 -296 -395 -471 -825 -802 -1353 -1041 -255 -115 -587 -216
-860 -262 -33 -6 -72 -12 -86 -15 -15 -2 -51 -7 -80 -11 -30 -3 -67 -8 -84
-10 -179 -22 -652 -22 -769 1 -10 2 -44 6 -75 10 -682 77 -1397 398 -1941 873
-70 61 -277 266 -325 322 -16 19 -46 53 -65 75 -19 22 -46 55 -60 73 -14 19
-30 39 -35 45 -18 19 -110 148 -162 226 -175 264 -340 608 -434 910 -18 58
-34 110 -35 115 -1 6 -16 66 -33 135 -32 133 -35 148 -52 250 -36 224 -47 376
-44 645 2 143 5 271 8 285 3 14 8 56 12 93 3 37 8 76 10 85 1 9 6 37 9 62 4
25 11 65 16 90 6 25 12 56 14 70 2 14 10 48 16 75 6 28 13 57 15 65 30 142
130 440 196 585 13 28 24 52 24 55 4 22 131 263 184 350 11 19 24 42 28 50 4
8 11 20 15 25 4 6 33 48 65 95 349 526 854 968 1424 1250 305 151 732 288
1008 325 20 3 45 7 57 9 12 2 45 7 75 11 30 3 65 8 79 10 14 2 75 7 135 11 61
3 111 7 112 8 5 4 330 -2 413 -8z"/>
</g>
</svg>
